<?xml version="1.0" encoding="UTF-8"?>
<svg width="136px" height="42px" viewBox="0 0 136 42" version="1.1" xmlns="http://www.w3.org/2000/svg" xmlns:xlink="http://www.w3.org/1999/xlink">
    <!-- Generator: Sketch 59.1 (86144) - https://sketch.com -->
    <title>logo</title>
    <desc>Created with Sketch.</desc>
    <defs>
        <polygon id="path-1" points="0.000637557921 0.00641886792 22.5626377 0.00641886792 22.5626377 13.8679245 0.000637557921 13.8679245"></polygon>
        <polygon id="path-3" points="0 0.0206037736 32.3430438 0.0206037736 32.3430438 31.6849585 0 31.6849585"></polygon>
        <polygon id="path-5" points="0.377299962 0.225347132 15.1913208 0.225347132 15.1913208 11.1183523 0.377299962 11.1183523"></polygon>
    </defs>
    <g id="Symbols" stroke="none" stroke-width="1" fill="none" fill-rule="evenodd">
        <g id="状态栏" transform="translate(-24.000000, -9.000000)">
            <g id="logo" transform="translate(24.000000, 9.000000)">
                <path d="M2.0289566,30.1469264 C1.74723962,30.4290396 1.49444717,30.728983 1.27454151,31.0451717 C1.50078679,30.7258132 1.75357925,30.4258698 2.03054151,30.1489075 L2.0289566,30.1469264 Z" id="Fill-1" fill="#2461EF"></path>
                <path d="M30.8085849,21.4612868 C30.6913019,21.3162679 30.567283,21.1760038 30.4400943,21.0404943 C30.5688679,21.1760038 30.6913019,21.3162679 30.8085849,21.4612868" id="Fill-3" fill="#2461EF"></path>
                <g id="编组" transform="translate(0.000000, 28.111472)">
                    <mask id="mask-2" fill="white">
                        <use xlink:href="#path-1"></use>
                    </mask>
                    <g id="Clip-6"></g>
                    <path d="M5.2970717,5.30356981 C4.3956566,6.20458868 4.3940717,7.66706038 5.2970717,8.57006038 C6.2000717,9.47266415 7.66373208,9.47266415 8.56514717,8.57164528 L11.8312415,11.8377396 C9.14522264,14.5225698 4.8065434,14.5451547 2.09437358,11.9015321 L1.99492075,11.8020792 C1.43901509,11.2382491 0.998807547,10.6023057 0.676279245,9.92594717 C-0.117758491,8.26377736 -0.212060377,6.34841887 0.394166038,4.62721132 L0.395750943,4.62721132 C0.404071698,4.60264528 0.411996226,4.58006038 0.420316981,4.55707925 C0.500354717,4.33717358 0.591486792,4.12202264 0.69569434,3.91004151 C0.723430189,3.8514 0.752750943,3.79394717 0.782071698,3.73570189 C0.785241509,3.72738113 0.790392453,3.72104151 0.793562264,3.71272075 C0.834373585,3.63624906 0.876769811,3.55977736 0.920750943,3.48290943 C0.964732075,3.40802264 1.00871321,3.33273962 1.05586415,3.25983396 C1.09033585,3.20436226 1.12599623,3.14889057 1.16363774,3.09500377 C1.19929811,3.04111698 1.23693962,2.98723019 1.27458113,2.93373962 C1.50082642,2.61438113 1.75361887,2.31443774 2.03058113,2.03747547 C2.17243019,1.89523019 2.32061887,1.75853208 2.47395849,1.62975849 C2.60748679,1.51723019 2.74616604,1.40985283 2.88801509,1.30683396 C3.23827925,1.05602264 3.61192075,0.836116981 4.00616604,0.651871698 C4.02399623,0.643550943 4.04024151,0.635626415 4.05846792,0.62730566 C4.12820377,0.5964 4.19833585,0.56549434 4.27005283,0.536173585 C4.3386,0.50685283 4.40873208,0.479116981 4.47886415,0.452966038 C4.49669434,0.446230189 4.51452453,0.439890566 4.53433585,0.433550943 C4.61239245,0.404230189 4.69084528,0.376098113 4.77048679,0.350343396 C4.83269434,0.32894717 4.89450566,0.309532075 4.95790189,0.291701887 C4.96622264,0.288532075 4.97256226,0.28694717 4.98088302,0.284966038 C5.01337358,0.275456604 5.04586415,0.265550943 5.07875094,0.257626415 C5.11599623,0.245739623 5.15363774,0.236230189 5.19088302,0.227909434 C5.24675094,0.211664151 5.30182642,0.198588679 5.35729811,0.18749434 C5.41276981,0.172833962 5.46824151,0.16094717 5.52371321,0.14985283 C5.60493962,0.131626415 5.68814717,0.116966038 5.77135472,0.104286792 C5.81692075,0.0959660377 5.86248679,0.0880415094 5.90805283,0.082890566 C5.97026038,0.0717962264 6.0320717,0.0630792453 6.09388302,0.0571358491 C6.18541132,0.0452490566 6.27852453,0.0357396226 6.3696566,0.0286075472 L6.37124151,0.0286075472 C6.4461283,0.0226641509 6.52101509,0.0175132075 6.59590189,0.0143433962 L6.59788302,0.0143433962 C6.6335434,0.0127584906 6.67118491,0.0115698113 6.70684528,0.00958867925 C6.7821283,0.00800377358 6.85543019,0.00641886792 6.93031698,0.00641886792 L17.9418453,0.00641886792 L20.205883,2.2704566 L20.8236,2.88777736 L22.5626377,4.62721132 L6.87643019,4.62721132 C6.30269434,4.64028679 5.73410943,4.86653208 5.2970717,5.30356981" id="Fill-5" fill="#2461EF" mask="url(#mask-2)"></path>
                </g>
                <g id="编组" transform="translate(0.000000, 0.375623)">
                    <mask id="mask-4" fill="white">
                        <use xlink:href="#path-3"></use>
                    </mask>
                    <g id="Clip-8"></g>
                    <path d="M31.9477358,23.1229019 C32.2036981,23.8448264 32.3423774,24.6226189 32.3423774,25.4325057 C32.3423774,26.2427887 32.2036981,27.0201849 31.9477358,27.7421094 C31.9184151,27.8269019 31.8875094,27.9101094 31.853434,27.9913358 C31.827283,28.0582981 31.7995472,28.1236755 31.7702264,28.1886566 C31.7634906,28.2100528 31.7539811,28.2298642 31.7440755,28.2504679 C31.7179245,28.3095057 31.6901887,28.3681472 31.6608679,28.4267887 C31.6509623,28.4509585 31.6398679,28.4759208 31.6267925,28.4985057 C31.6089623,28.5377321 31.5891509,28.5753736 31.5697358,28.6122226 C31.5352642,28.6787887 31.4996038,28.7445623 31.4635472,28.8099396 C31.4635472,28.8107321 31.4619623,28.8131094 31.4603774,28.8146943 C31.4231321,28.8848264 31.3823208,28.9533736 31.3399245,29.0199396 C31.3252642,29.0476755 31.3090189,29.0738264 31.2907925,29.0999774 C31.2551321,29.1602038 31.2159057,29.2208264 31.1750943,29.2790717 C31.1671698,29.2937321 31.1572642,29.3083925 31.1473585,29.3218642 C31.1085283,29.3785245 31.0693019,29.4339962 31.0300755,29.4870906 C31.0090755,29.5187887 30.9860943,29.5496943 30.9635094,29.5790151 C30.9127925,29.6475623 30.8604906,29.7145245 30.8085849,29.7795057 C30.6913019,29.9245245 30.567283,30.0651849 30.4400943,30.1999019 C30.4369245,30.2034679 30.4337547,30.2082226 30.429,30.2117887 C30.3636226,30.2795434 30.2966604,30.3461094 30.2281132,30.4134679 C30.2233585,30.4202038 30.2166226,30.4253547 30.2118679,30.4297132 C30.1484717,30.4903358 30.0815094,30.5521472 30.0149434,30.6103925 C30.0113774,30.6155434 30.0082075,30.6191094 30.0050377,30.6191094 C29.9364906,30.6809208 29.8647736,30.7415434 29.7930566,30.8017698 C29.7914717,30.8033547 29.7914717,30.8033547 29.7898868,30.8033547 C29.7146038,30.8635811 29.639717,30.9234113 29.5616604,30.9808642 C29.4851887,31.0391094 29.4051509,31.0949774 29.3251132,31.1504491 C29.2454717,31.2055245 29.1638491,31.2578264 29.0826226,31.3101283 C29.0449811,31.3346943 29.0057547,31.3588642 28.9669245,31.3802604 C28.9162075,31.4127509 28.8639057,31.4436566 28.8104151,31.4729774 C28.8005094,31.4781283 28.7906038,31.4848642 28.7806981,31.4892226 C28.7058113,31.5320151 28.6309245,31.5724302 28.5544528,31.6100717 C28.5053208,31.6358264 28.455,31.6603925 28.404283,31.6849585 L24.461434,27.7421094 L25.4115849,27.7421094 C26.6882264,27.7421094 27.7211887,26.7087509 27.7211887,25.4325057 C27.7211887,24.1562604 26.6882264,23.1229019 25.4115849,23.1229019 L6.93,23.1229019 C3.91313208,23.1229019 1.34598113,21.1932792 0.394245283,18.5021094 C0.138283019,17.7801849 0,17.0027887 0,16.1925057 C0,15.381034 0.138283019,14.6032415 0.394245283,13.881317 C1.34598113,11.1889585 3.91313208,9.26250566 6.93,9.26250566 L25.413566,9.26250566 C26.0051321,9.26250566 26.5951132,9.03546792 27.0464151,8.58614717 C27.9478302,7.68275094 27.9478302,6.22067547 27.0448302,5.31767547 C26.1438113,4.41626038 24.6817358,4.41467547 23.7787358,5.31767547 L20.5106604,2.0496 C23.2180755,-0.655833962 27.6058868,-0.655833962 30.3129057,2.0496 C32.2639245,4.00061887 32.8083396,6.82373208 31.9477358,9.26250566 C31.613717,10.2075057 31.0693019,11.0958453 30.3129057,11.8522415 C28.9586038,13.2049585 27.1850943,13.881317 25.4115849,13.881317 L6.93,13.881317 C5.65573585,13.881317 4.62039623,14.9162604 4.62039623,16.1925057 C4.62039623,17.467166 5.65573585,18.5021094 6.93,18.5021094 L25.4115849,18.5021094 C25.4967736,18.5021094 25.5795849,18.5040906 25.6643774,18.5072604 C25.7166792,18.5084491 25.7685849,18.510034 25.8208868,18.5151849 C25.8680377,18.5167698 25.9171698,18.5203358 25.9643208,18.5250906 C25.9710566,18.5250906 25.9773962,18.5250906 25.9841321,18.5266755 C26.0716981,18.5330151 26.1600566,18.5413358 26.2480189,18.5528264 C26.3312264,18.5623358 26.414434,18.5742226 26.4972453,18.5869019 C26.5154717,18.5904679 26.531717,18.5916566 26.5495472,18.5948264 C26.6212642,18.6067132 26.6913962,18.6197887 26.7615283,18.6344491 C26.7777736,18.6376189 26.7940189,18.6403925 26.8102642,18.6439585 C26.8772264,18.657034 26.9422075,18.6716943 27.0091698,18.6883358 C27.0321509,18.6926943 27.0547358,18.6978453 27.0773208,18.7045811 C27.1331887,18.7172604 27.1882642,18.7319208 27.2437358,18.7465811 C27.4343208,18.798883 27.623717,18.8606943 27.8095472,18.9292415 C27.8745283,18.9522226 27.9399057,18.9779774 28.0048868,19.0057132 C28.0964151,19.0397887 28.1859623,19.0790151 28.2755094,19.1198264 C28.3147358,19.1376566 28.3539623,19.1554868 28.3927925,19.1752981 C28.4351887,19.1951094 28.4775849,19.2161094 28.5183962,19.2371094 C28.5786226,19.2668264 28.6388491,19.2977321 28.6974906,19.3318075 C28.7529623,19.3595434 28.8068491,19.3904491 28.8591509,19.4213547 C28.8769811,19.4296755 28.8948113,19.441166 28.9130377,19.4522604 C28.9700943,19.4847509 29.0267547,19.5208075 29.0826226,19.554883 C29.1638491,19.6071849 29.2454717,19.6594868 29.3251132,19.7145623 C29.4051509,19.7704302 29.4851887,19.8259019 29.5616604,19.8841472 C29.639717,19.9416 29.7146038,20.0018264 29.7898868,20.0620528 C29.7914717,20.0620528 29.7914717,20.0620528 29.7930566,20.0636377 C29.8647736,20.1242604 29.9364906,20.1840906 30.0050377,20.2462981 C30.0082075,20.2462981 30.0113774,20.2494679 30.0149434,20.2546189 C30.0815094,20.3128642 30.1484717,20.3746755 30.2118679,20.4352981 C30.2166226,20.4400528 30.2233585,20.4448075 30.2281132,20.4515434 C30.2966604,20.5185057 30.3636226,20.5854679 30.429,20.6540151 C30.4337547,20.6567887 30.4369245,20.6619396 30.4400943,20.6651094 C30.567283,20.8006189 30.6913019,20.9404868 30.8085849,21.0855057 C30.8604906,21.1500906 30.9127925,21.2174491 30.9635094,21.2859962 C30.9860943,21.315317 31.0090755,21.3466189 31.0300755,21.3775245 C31.0693019,21.4306189 31.1085283,21.4864868 31.1473585,21.5439396 C31.1572642,21.5566189 31.1671698,21.5712792 31.1750943,21.5859396 C31.2159057,21.6449774 31.2551321,21.7052038 31.2907925,21.765034 C31.3090189,21.7915811 31.3252642,21.8173358 31.3399245,21.8450717 C31.3823208,21.912034 31.4231321,21.9801849 31.4603774,22.0507132 C31.4619623,22.0522981 31.4635472,22.053883 31.4635472,22.0554679 C31.4996038,22.1208453 31.5352642,22.1858264 31.5697358,22.2527887 C31.5891509,22.2896377 31.6089623,22.3276755 31.6267925,22.3669019 C31.6398679,22.3894868 31.6509623,22.4140528 31.6608679,22.4378264 C31.6901887,22.4972604 31.7179245,22.5555057 31.7440755,22.6145434 C31.7539811,22.6359396 31.7634906,22.6549585 31.7702264,22.6763547 C31.7995472,22.7417321 31.827283,22.8067132 31.853434,22.8736755 C31.8875094,22.9549019 31.9184151,23.0381094 31.9477358,23.1229019" id="Fill-7" fill="#2461EF" mask="url(#mask-4)"></path>
                </g>
                <path d="M30.8085849,30.1550887 C30.6913019,30.3001075 30.5688679,30.4407679 30.4400943,30.5758811 C30.567283,30.4407679 30.6913019,30.3001075 30.8085849,30.1550887" id="Fill-9" fill="#2461EF"></path>
                <path d="M0.420277358,32.6686302 C0.411956604,32.6916113 0.404032075,32.7141962 0.395711321,32.7387623 L0.394126415,32.7387623 C0.40244717,32.7157811 0.410767925,32.6916113 0.420277358,32.6686302" id="Fill-11" fill="#2461EF"></path>
                <path d="M2.0307,30.1488679 C1.75334151,30.4258302 1.50094528,30.7257736 1.27430377,31.0451321 C1.49420943,30.7289434 1.74700189,30.429 2.02911509,30.1468868 L2.0307,30.1488679 Z" id="Fill-13" fill="#2461EF"></path>
                <path d="M55.2703358,9.83703396 L54.4041849,9.83703396 L54.4041849,7.43946792 C54.4041849,6.93784528 53.9976566,6.53131698 53.496034,6.53131698 C52.9948075,6.53131698 52.587883,6.93784528 52.587883,7.43946792 L52.587883,9.83703396 L51.7387698,9.83703396 C51.3251094,9.83703396 50.9899019,10.1722415 50.9899019,10.5859019 C50.9899019,10.9995623 51.3251094,11.3347698 51.7387698,11.3347698 L52.587883,11.3347698 L52.587883,19.614317 C52.587883,20.1155434 52.9948075,20.5224679 53.496034,20.5224679 C53.9976566,20.5224679 54.4041849,20.1155434 54.4041849,19.614317 L54.4041849,11.3347698 L55.2703358,11.3347698 C55.6839962,11.3347698 56.0192038,10.9995623 56.0192038,10.5859019 C56.0192038,10.1722415 55.6839962,9.83703396 55.2703358,9.83703396" id="Fill-15" fill="#848484"></path>
                <path d="M61.5122491,9.6650717 C61.415966,9.67180755 61.3743623,9.68171321 61.3169094,9.69003396 C61.2590604,9.69875094 61.2130981,9.71103396 61.1627774,9.7221283 C61.0625321,9.74392075 60.9690226,9.77205283 60.8767019,9.80216604 C60.6908717,9.86001509 60.5157396,9.93331698 60.3465509,10.0165245 C60.0057962,10.1785811 59.6987208,10.3945245 59.4225509,10.6346377 C59.2525698,10.7828264 59.1035887,10.9456755 58.9637208,11.1148642 L58.9637208,10.6108642 C58.9637208,10.1353925 58.5785887,9.75026038 58.103117,9.75026038 C57.6280415,9.75026038 57.2429094,10.1353925 57.2429094,10.6108642 L57.2429094,19.644034 C57.2429094,20.1191094 57.6280415,20.5042415 58.103117,20.5042415 C58.5785887,20.5042415 58.9637208,20.1191094 58.9637208,19.644034 L58.9637208,13.7743358 C59.0742679,13.4732038 59.2010604,13.1847509 59.3686642,12.9291849 C59.639683,12.4850151 59.9800415,12.1125623 60.3766642,11.8669019 C60.5747774,11.7448642 60.7808151,11.643034 60.9955698,11.5824113 C61.100966,11.5507132 61.2099283,11.524166 61.3137396,11.5106943 C61.3664377,11.503166 61.4183434,11.4952415 61.4654943,11.4948453 C61.4892679,11.4936566 61.5162113,11.4900906 61.5332491,11.4924679 C61.5498906,11.4932604 61.5823811,11.4928642 61.5609849,11.4968264 C62.0665698,11.4833547 62.465966,11.062166 62.4524943,10.5565811 C62.4386264,10.0509962 62.017834,9.6516 61.5122491,9.6650717" id="Fill-17" fill="#848484"></path>
                <path d="M64.6006358,14.3389189 C64.7084094,13.6229377 64.9576358,12.762334 65.5226547,12.1569 C66.0119943,11.6322962 66.6709189,11.3775226 67.537466,11.3775226 C68.5129755,11.3775226 69.2420321,11.6592396 69.7670321,12.2385226 C70.3479,12.8800132 70.5539377,13.7402208 70.6248623,14.332183 C69.6386547,14.3092019 67.8683151,14.3191075 64.6006358,14.3389189 M71.0987491,15.9226358 L71.3131075,16.1354094 L71.8416736,15.8295226 C72.5093151,15.4424094 72.2478057,14.0401642 72.0322585,13.2382019 C71.4343528,11.0110132 69.8375604,9.78429623 67.537466,9.78429623 C66.219617,9.78429623 65.1478245,10.2193528 64.3514094,11.0767868 C62.7997868,12.7468811 62.9194472,15.445183 62.9380698,15.7455226 C62.9479755,16.1021264 63.1231075,19.4122019 66.2267491,20.3746358 C66.8278245,20.5616547 67.3979943,20.6381264 67.9289377,20.6381264 C70.3193717,20.6381264 71.9205226,19.0853151 72.0017491,19.0048811 C72.313183,18.696617 72.3151642,18.1953906 72.0084849,17.8823717 C71.7010132,17.5693528 71.1974094,17.5645981 70.8832019,17.8704849 C70.8106925,17.940617 69.0772019,19.5912962 66.6986547,18.8531264 C64.9612019,18.3142585 64.6156925,16.5684849 64.5475415,15.9325415 C66.9197491,15.919466 70.1438434,15.9083717 71.0987491,15.9226358" id="Fill-19" fill="#848484"></path>
                <path d="M45.9404321,11.8768075 L45.8845642,11.8633358 C45.3817528,11.7587321 43.8535075,11.2678075 43.4406396,10.411166 C43.2647151,10.0466377 43.3063189,9.61752453 43.5678283,9.0996566 C43.9212623,8.39952453 44.3971302,7.96803396 45.0231679,7.78061887 C46.4816774,7.34318491 48.2686585,8.35039245 48.2995642,8.36822264 C48.6795453,8.5881283 49.1665075,8.45895849 49.3872057,8.07858113 C49.6083,7.69820377 49.4791302,7.21084528 49.0983566,6.98975094 C49.0020736,6.93348679 46.7039604,5.62078868 44.5750358,6.25158113 C43.5179038,6.56539245 42.7004887,7.28216604 42.1457717,8.38169434 C41.5304321,9.60009057 41.7309226,10.537166 42.0078849,11.1081283 C42.813017,12.7695057 45.1321302,13.3313547 45.5319226,13.4173358 C46.2562245,13.6289208 48.1604887,14.4122604 48.6724132,15.6124302 C48.8911302,16.1247509 48.8340736,16.6818453 48.4984698,17.3166 C48.0816396,18.1054868 47.5142434,18.6003736 46.7637906,18.8297887 C44.9728472,19.3777698 42.7777528,18.2207887 42.7567528,18.2096943 C42.3692434,18.0004868 41.8862434,18.1455057 41.6774321,18.5322226 C41.4682245,18.9193358 41.6128472,19.4027321 41.9999604,19.6115434 C42.0895075,19.6602792 43.7988283,20.568034 45.7173566,20.568034 C46.2126396,20.568034 46.7217906,20.5074113 47.2206396,20.3556566 C48.3851491,20.0026189 49.2889415,19.2307698 49.9070547,18.0615057 C50.4665264,17.0031849 50.5457717,15.9385245 50.1356774,14.9824302 C49.2089038,12.8194302 46.0731679,11.9144491 45.9404321,11.8768075" id="Fill-21" fill="#848484"></path>
                <path d="M78.1920736,18.9419208 C76.8262811,18.9419208 75.1981868,18.3127132 75.1981868,15.3148642 C75.1981868,12.7758453 76.2616585,11.3779585 78.1920736,11.3779585 C80.1367528,11.3779585 81.1859604,13.4062415 81.1859604,15.3148642 C81.1859604,17.992166 79.5729226,18.9419208 78.1920736,18.9419208 M82.7791868,19.7383358 L82.7791868,10.5807509 C82.7791868,10.1409396 82.422583,9.78433585 81.9823755,9.78433585 C81.5425642,9.78433585 81.1859604,10.1409396 81.1859604,10.5807509 L81.1859604,11.0613736 C80.3935075,10.2590151 79.3573755,9.78473208 78.1920736,9.78473208 C75.9743943,9.78473208 73.6049604,11.2372981 73.6049604,15.3148642 C73.6049604,17.8384302 74.8098849,20.5351472 78.1920736,20.5351472 C79.2444509,20.5351472 80.3320925,20.1595245 81.1859604,19.3837132 L81.1859604,19.7383358 C81.1859604,20.1785434 81.5425642,20.5351472 81.9823755,20.5351472 C82.422583,20.5351472 82.7791868,20.1785434 82.7791868,19.7383358" id="Fill-23" fill="#848484"></path>
                <path d="M108.824179,19.7473698 L108.824179,5.82318113 C108.824179,5.34810566 108.438651,4.96297358 107.963575,4.96297358 C107.4885,4.96297358 107.102972,5.34810566 107.102972,5.82318113 L107.102972,19.7473698 C107.102972,20.2224453 107.4885,20.6075774 107.963575,20.6075774 C108.438651,20.6075774 108.824179,20.2224453 108.824179,19.7473698" id="Fill-25" fill="#848484"></path>
                <path d="M104.248596,19.7471717 L104.209766,12.0532472 L104.2062,11.3138887 L105.535143,11.3138887 C105.940087,11.3138887 106.268162,10.9858132 106.268162,10.5808698 C106.268162,10.1763226 105.940087,9.84824717 105.535143,9.84824717 L104.198672,9.84824717 L104.190747,8.20668113 L104.185992,7.24503962 C104.177672,7.16619057 104.22403,7.04732264 104.300898,6.96213396 C104.384898,6.8741717 104.538634,6.78502075 104.74903,6.72637925 C104.953483,6.66020943 105.220936,6.64832264 105.482049,6.63603962 L105.546634,6.63286981 C105.990408,6.61226604 106.336709,6.23862453 106.322842,5.79286981 C106.308577,5.3427566 105.932162,4.98892642 105.482049,5.00319057 C105.105634,5.01507736 104.726445,5.0261717 104.31437,5.14345472 C103.910219,5.25360566 103.467238,5.45211509 103.103898,5.82654906 C102.746898,6.20811509 102.515106,6.71766226 102.527389,7.28347358 L102.522238,8.24234151 L102.514313,9.84824717 L101.54237,9.84824717 C101.137426,9.84824717 100.809351,10.1763226 100.809351,10.5808698 C100.809351,10.9858132 101.137426,11.3138887 101.54237,11.3138887 L102.506785,11.3138887 L102.503219,12.0778132 L102.464389,19.7471717 L102.464389,19.7562849 C102.466766,20.2491906 102.868936,20.6466057 103.361049,20.6442389 C103.853955,20.6414547 104.25137,20.2400774 104.248596,19.7471717" id="Fill-27" fill="#848484"></path>
                <path d="M115.419566,18.9421189 C113.972547,18.9421189 112.425679,17.9891943 112.425679,15.3150623 C112.425679,12.7756472 113.489151,11.3773642 115.419566,11.3773642 C117.348,11.3773642 118.454264,12.7974396 118.454264,15.2738547 C118.454264,17.5707792 117.319868,18.9421189 115.419566,18.9421189 M120.047887,15.2738547 C120.047887,11.2264019 117.65666,9.78413774 115.419566,9.78413774 C114.343415,9.78413774 110.832453,10.1831377 110.832453,15.3150623 C110.832453,18.9211189 113.136113,20.5353453 115.419566,20.5353453 C117.723226,20.5353453 120.047887,18.9084396 120.047887,15.2738547" id="Fill-29" fill="#848484"></path>
                <g id="编组" transform="translate(120.452830, 9.488830)">
                    <mask id="mask-6" fill="white">
                        <use xlink:href="#path-5"></use>
                    </mask>
                    <g id="Clip-32"></g>
                    <path d="M14.6132264,0.279537736 C14.1643019,0.123424528 13.6741698,0.360764151 13.5180566,0.809688679 L11.1240566,7.69451887 L8.60683019,0.79740566 L8.60326415,0.7875 C8.51807547,0.557688679 8.33541509,0.365915094 8.08618868,0.276764151 C7.63964151,0.118273585 7.14911321,0.351254717 6.99022642,0.797801887 L4.47339623,7.86846226 L2.05166038,0.806915094 C2.05086792,0.804141509 2.04849057,0.797801887 2.04730189,0.795028302 C1.88683019,0.347688679 1.39392453,0.1155 0.946981132,0.276367925 C0.499641509,0.437235849 0.26745283,0.930141509 0.428320755,1.37708491 L3.71581132,10.519217 C3.79267925,10.7288208 3.95830189,10.9083113 4.18375472,10.9923113 C4.59266038,11.1448585 5.04792453,10.9368396 5.20007547,10.5275377 L7.78981132,3.57772642 L10.335566,10.5528962 C10.4219434,10.7854811 10.6089623,10.9828019 10.8613585,11.0703679 C11.310283,11.2264811 11.8000189,10.9891415 11.9565283,10.540217 L15.1433774,1.37470755 C15.2994906,0.925783019 15.0621509,0.435650943 14.6132264,0.279537736" id="Fill-31" fill="#848484" mask="url(#mask-6)"></path>
                </g>
                <path d="M97.7333264,13.0180981 C97.7563075,13.0917962 97.7753264,13.1670792 97.7919679,13.2411736 C97.8038547,13.2903057 97.816534,13.3576642 97.8232698,13.3988717 C97.8280245,15.5147208 97.8347604,17.6305698 97.858534,19.7468151 C97.8644774,20.2302113 98.2551566,20.6236642 98.7409302,20.6292612 C99.2338358,20.6343623 99.6375906,20.2397208 99.6431377,19.7468151 C99.6665151,17.6091736 99.6736472,15.4719283 99.6787981,13.3342868 L99.6787981,13.2815887 L99.6736472,13.2384 C99.6534396,13.0648528 99.6332321,12.9697585 99.6066849,12.8413811 C99.5801377,12.722117 99.5504208,12.6052302 99.5159491,12.4891358 C99.4474019,12.2569472 99.3634019,12.0279283 99.2587981,11.8028717 C99.0495906,11.3547396 98.7595528,10.9129472 98.357383,10.5452491 C97.958383,10.1787396 97.4504208,9.89781509 96.9281943,9.76706038 C96.4020057,9.62402264 95.8956283,9.61966415 95.3888547,9.68107925 C94.8785151,9.74526792 94.3618358,9.92079623 93.9141,10.1949849 C93.4647792,10.4667962 93.0883642,10.8249849 92.7864396,11.2073434 C92.7404774,11.2644 92.7000623,11.323834 92.657666,11.3828717 C92.4797604,11.0864943 92.2642132,10.8020038 91.9916094,10.5531736 C91.5934019,10.1842868 91.087817,9.91564528 90.5703453,9.77419245 L90.1804585,9.68860755 C90.0508925,9.66919245 89.9244962,9.66523019 89.7961189,9.65413585 C89.5433264,9.62798491 89.2754774,9.64423019 89.0139679,9.68306038 C88.4881755,9.76230566 87.9817981,9.96477736 87.5530811,10.2401547 C87.3153453,10.3923057 87.101383,10.5650604 86.9052509,10.7489094 L86.9052509,10.5809094 C86.9052509,10.097117 86.5129868,9.70485283 86.0287981,9.70485283 C85.5446094,9.70485283 85.1523453,10.097117 85.1523453,10.5809094 L85.1523453,13.7368528 C85.1357038,13.8355132 85.1364962,13.9333811 85.1523453,14.0284755 L85.1523453,19.7384943 C85.1523453,20.2222868 85.5446094,20.6145509 86.0287981,20.6145509 C86.5129868,20.6145509 86.9052509,20.2222868 86.9052509,19.7384943 L86.9052509,14.0835509 C87.0027226,13.8212491 87.1524962,13.4987208 87.3074208,13.229683 C87.4762132,12.932117 87.6628358,12.6504 87.8716472,12.4083057 C88.2912509,11.9165887 88.7797981,11.6067396 89.2889491,11.5393811 C89.4189113,11.5223434 89.5484774,11.5156075 89.689534,11.5322491 C89.7576849,11.5385887 89.8297981,11.5366075 89.8959679,11.5465132 C89.9589679,11.561966 90.0215717,11.575834 90.0849679,11.5877208 C90.3282509,11.6562679 90.5398358,11.7636453 90.7260623,11.9296642 C90.9130811,12.0948906 91.0715717,12.3274755 91.1991566,12.5941358 C91.2601755,12.7300415 91.3172321,12.8710981 91.3604208,13.0192868 C91.4020245,13.1444943 91.4353075,13.3097208 91.4507604,13.4036264 C91.4555151,15.5182868 91.4622509,17.6321547 91.4860245,19.7468151 C91.4915717,20.2302113 91.8822509,20.6236642 92.368817,20.6292612 C92.8609302,20.6343623 93.2650811,20.2397208 93.2702321,19.7468151 C93.2912321,17.8370038 93.2991566,15.9271925 93.3035151,14.0173811 C93.401383,13.7665698 93.5388736,13.4745509 93.6819113,13.2265132 C93.8851755,12.8695132 94.0353453,12.5937396 94.2318736,12.3560038 C94.6201755,11.8801358 95.0766283,11.6000038 95.6301566,11.540966 C95.9091,11.5140226 96.2114208,11.5148151 96.4527226,11.582966 C96.7015528,11.6435887 96.9075906,11.7604755 97.0957981,11.9260981 C97.2820245,12.0925132 97.4432887,12.323117 97.5708736,12.5913623 C97.634666,12.7252868 97.6889491,12.8699094 97.7333264,13.0180981" id="Fill-33" fill="#848484"></path>
                <path d="M131.00434,27.2336717 C130.965113,26.9067849 130.668736,26.6730113 130.341849,26.7114453 L130.001094,26.7522566 C129.720566,26.7855396 129.558113,26.8556717 129.359604,26.9452189 C129.172189,27.034766 129.003396,27.153634 128.850849,27.2859736 C128.757736,27.3675962 128.675717,27.4571434 128.598849,27.5502566 L128.598849,27.2728981 C128.598849,27.0109925 128.387264,26.7994075 128.125358,26.7994075 C127.863849,26.7994075 127.652264,27.0109925 127.652264,27.2728981 L127.652264,32.2431623 C127.652264,32.5046717 127.863849,32.7162566 128.125358,32.7162566 C128.387264,32.7162566 128.598849,32.5046717 128.598849,32.2431623 L128.598849,29.0135208 C128.659868,28.8475019 128.729604,28.6890113 128.821528,28.5479547 C128.970509,28.3038792 129.158321,28.098634 129.376642,27.963917 C129.485208,27.8965585 129.598528,27.8406906 129.717,27.8070113 C129.774849,27.7895774 129.834679,27.774917 129.891736,27.7681811 C129.942453,27.7582755 130.022491,27.7555019 130.027642,27.7598604 C130.149679,27.8616906 130.312528,27.9163698 130.482509,27.8961623 C130.809396,27.8573321 131.043566,27.5605585 131.00434,27.2336717" id="Fill-35" fill="#848484"></path>
                <path d="M98.385317,29.2976151 C98.4435623,28.9057472 98.5798642,28.4338415 98.889317,28.1022 C99.157166,27.8153321 99.5177321,27.6758604 99.9916189,27.6758604 C100.524543,27.6758604 100.923147,27.8299925 101.210411,28.1469736 C101.528977,28.4988226 101.640713,28.9707283 101.679147,29.2936528 C101.141468,29.2813698 100.174675,29.2865208 98.385317,29.2976151 M101.933128,30.1562377 L102.051204,30.2755019 L102.341638,30.1035396 C102.718845,29.8808604 102.534204,29.0341245 102.437525,28.6798981 C102.10826,27.4753698 101.239336,26.812483 99.9916189,26.812483 C99.2732604,26.812483 98.6892226,27.0490302 98.2549585,27.5165774 C97.3769208,28.4615774 97.4799396,30.009634 97.4839019,30.0480679 C97.4846943,30.1292943 97.5259019,32.0422755 99.2764302,32.5858981 C99.6041094,32.6877283 99.9147509,32.7293321 100.204789,32.7293321 C101.507977,32.7289358 102.380864,31.8825962 102.424845,31.8390113 C102.594034,31.6718038 102.595223,31.4003887 102.428808,31.2308038 C102.262392,31.0604264 101.990185,31.0580491 101.818619,31.2236717 C101.779392,31.2625019 100.83043,32.1627283 99.5327887,31.7609547 C98.5929396,31.4689358 98.3979962,30.5322566 98.3571849,30.1617849 C99.6500717,30.1542566 101.410109,30.147917 101.933128,30.1562377" id="Fill-37" fill="#848484"></path>
                <path d="M116.347845,29.2976151 C116.406091,28.9057472 116.542392,28.4338415 116.851845,28.1022 C117.119694,27.8153321 117.48026,27.6758604 117.954147,27.6758604 C118.487072,27.6758604 118.885675,27.8299925 119.17294,28.1469736 C119.491506,28.4988226 119.603242,28.9707283 119.641675,29.2936528 C119.103996,29.2813698 118.1376,29.2865208 116.347845,29.2976151 M119.895657,30.1562377 L120.013732,30.2755019 L120.304166,30.1035396 C120.681374,29.8808604 120.496732,29.0341245 120.400053,28.6798981 C120.070789,27.4753698 119.201864,26.812483 117.954147,26.812483 C117.235789,26.812483 116.651751,27.0490302 116.217487,27.5165774 C115.339449,28.4615774 115.442468,30.009634 115.44643,30.0480679 C115.447223,30.1292943 115.48843,32.0422755 117.238958,32.5858981 C117.566638,32.6877283 117.877279,32.7293321 118.167317,32.7293321 C119.470506,32.7289358 120.343392,31.8825962 120.387374,31.8390113 C120.556562,31.6718038 120.557751,31.4003887 120.391336,31.2308038 C120.224921,31.0604264 119.952317,31.0580491 119.781147,31.2236717 C119.741921,31.2625019 118.792958,32.1627283 117.495317,31.7609547 C116.555468,31.4689358 116.360525,30.5322566 116.319713,30.1617849 C117.6126,30.1542566 119.372638,30.147917 119.895657,30.1562377" id="Fill-39" fill="#848484"></path>
                <path d="M132.951436,29.240717 C132.661794,29.1499811 132.019115,28.8520189 131.884398,28.5088868 C131.854681,28.4347925 131.834474,28.3262264 131.936304,28.1459434 C132.09004,27.8753208 132.286568,27.7172264 132.536983,27.6633396 C133.124587,27.5361509 133.901191,27.9819057 134.151606,28.1641698 C134.347738,28.3072075 134.622323,28.2648113 134.764964,28.0690755 C134.908398,27.8737358 134.866398,27.5987547 134.670662,27.4553208 C134.54704,27.3641887 133.428492,26.5733208 132.354719,26.8039245 C131.858247,26.9101132 131.449738,27.2243208 131.172775,27.7128679 C130.905323,28.1839811 130.967926,28.5825849 131.067775,28.8337925 C131.395058,29.6587358 132.559964,30.0391132 132.68953,30.0791321 C133.223643,30.2475283 134.029964,30.6572264 134.148436,31.0403774 C134.163096,31.0875283 134.197568,31.1980755 134.037096,31.4029245 C133.199077,32.4735283 131.403379,31.3510189 131.386342,31.3403208 C131.181492,31.2103585 130.910474,31.269 130.779719,31.4734528 C130.648568,31.6775094 130.708398,31.9493208 130.912455,32.0800755 C131.396643,32.3895283 132.214455,32.7405849 133.02553,32.7405849 C133.648398,32.7405849 134.267304,32.5341509 134.728908,31.9441698 C135.096209,31.4750377 135.07204,31.0514717 134.987247,30.7792642 C134.684926,29.8085094 133.128549,29.2961887 132.951436,29.240717" id="Fill-41" fill="#848484"></path>
                <path d="M123.811523,31.8463811 C123.056711,31.8463811 122.156881,31.4988906 122.156881,29.8418717 C122.156881,28.4380415 122.744485,27.6654 123.811523,27.6654 C124.613485,27.6654 125.466164,28.4281358 125.466164,29.8418717 C125.466164,31.3217774 124.575051,31.8463811 123.811523,31.8463811 M125.906372,26.7853811 C125.663485,26.7853811 125.466164,26.9827019 125.466164,27.2255887 L125.466164,27.4906642 C125.027938,27.0472868 124.455391,26.7849849 123.811523,26.7849849 C122.585994,26.7849849 121.276466,27.5881358 121.276466,29.8418717 C121.276466,31.9692113 122.585994,32.7271925 123.811523,32.7271925 C124.393183,32.7271925 124.994258,32.5195698 125.466164,32.0904566 L125.466164,32.2865887 C125.466164,32.5298717 125.663485,32.7271925 125.906372,32.7271925 C126.149258,32.7271925 126.346579,32.5298717 126.346579,32.2865887 L126.346579,27.2255887 C126.346579,26.9827019 126.149258,26.7853811 125.906372,26.7853811" id="Fill-43" fill="#848484"></path>
                <path d="M96.0478189,24.8168491 C95.789083,24.8168491 95.579083,25.0264528 95.579083,25.2855849 L95.579083,28.3682264 L91.3794792,28.3682264 L91.3794792,25.2855849 C91.3794792,25.0264528 91.1694792,24.8168491 90.9107434,24.8168491 C90.6520075,24.8168491 90.4424038,25.0264528 90.4424038,25.2855849 L90.4424038,32.2409434 C90.4424038,32.5000755 90.6520075,32.7096792 90.9107434,32.7096792 C91.1694792,32.7096792 91.3794792,32.5000755 91.3794792,32.2409434 L91.3794792,29.1884151 L95.579083,29.1884151 L95.579083,32.2409434 C95.579083,32.5000755 95.789083,32.7096792 96.0478189,32.7096792 C96.3065547,32.7096792 96.5165547,32.5000755 96.5165547,32.2409434 L96.5165547,25.2855849 C96.5165547,25.0264528 96.3065547,24.8168491 96.0478189,24.8168491" id="Fill-45" fill="#848484"></path>
                <path d="M107.280283,26.817317 C107.050868,26.736883 106.800849,26.8573358 106.720019,27.0859585 L105.311038,31.0846755 L103.94366,27.0895245 C103.865604,26.8601094 103.616377,26.7376755 103.385774,26.8161283 C103.156358,26.8945811 103.033925,27.1446 103.112377,27.3740151 L104.840321,32.4211472 L104.13583,34.4197132 C104.055396,34.6487321 104.175849,34.8991472 104.404472,34.9803736 C104.452811,34.9974113 104.501943,35.0049396 104.550283,35.0049396 C104.731358,35.0049396 104.900943,34.8924113 104.964736,34.7117321 L107.548925,27.3775811 C107.629358,27.1489585 107.508906,26.8981472 107.280283,26.817317" id="Fill-47" fill="#848484"></path>
                <path d="M114.470802,28.2555792 L114.467236,28.2555792 L112.526123,28.2599377 C112.302255,28.2611264 112.11484,28.4366547 112.103349,28.6625038 C112.091462,28.8962774 112.271349,29.0959755 112.505123,29.1078623 L113.981462,29.1831453 C113.97116,29.7465792 113.902217,30.2993151 113.699349,30.775183 C113.457651,31.389334 112.955236,31.7784283 112.297104,31.8992774 C111.97933,31.9618811 111.602915,31.9876358 111.285142,31.9519755 C110.961028,31.9131453 110.651575,31.8156736 110.381349,31.6512396 C109.842085,31.3172208 109.469236,30.7363528 109.294896,30.0861453 C109.109858,29.4426736 109.074594,28.7211453 109.189104,28.071334 C109.309953,27.4163717 109.618613,26.797466 110.07467,26.3509189 C110.302896,26.1294283 110.567575,25.9527113 110.853255,25.8461264 L111.070387,25.7783717 L111.29267,25.7363717 C111.439274,25.7221075 111.591028,25.7133906 111.772896,25.7232962 C112.462726,25.7478623 113.117292,25.908334 113.471915,26.340617 C113.638726,26.5438811 113.937877,26.5728057 114.141538,26.4063906 C114.344802,26.2395792 114.374519,25.9396358 114.207708,25.7367679 L114.201764,25.7296358 C113.899443,25.3603528 113.477462,25.1039943 113.05984,24.9629377 C112.63984,24.8199 112.218651,24.7616547 111.810934,24.7477868 C111.616387,24.7378811 111.390934,24.7462019 111.162311,24.7711642 C111.051368,24.7921642 110.939236,24.8103906 110.829481,24.8361453 L110.507349,24.9387679 C110.08616,25.0988434 109.712123,25.3544094 109.401877,25.6587113 C108.780991,26.2728623 108.399425,27.0728434 108.249651,27.8985792 C108.103047,28.734617 108.175557,29.5595604 108.429142,30.3575604 C108.683915,31.1448623 109.204557,31.9103717 109.976009,32.3418623 C110.355198,32.560183 110.78233,32.6873717 111.207481,32.728183 C111.640953,32.7594849 112.025292,32.7460132 112.448462,32.6695415 C112.86133,32.5918811 113.288462,32.4310132 113.646255,32.1532585 C114.004047,31.8766925 114.278632,31.5054283 114.456538,31.1171264 C114.810368,30.3318057 114.900311,29.5187491 114.931613,28.7318434 L114.931613,28.7310509 C114.932009,28.7262962 114.932009,28.7195604 114.932009,28.7148057 C114.931613,28.4608245 114.725179,28.2547868 114.470802,28.2555792" id="Fill-49" fill="#848484"></path>
                <path d="M86.6111321,26.7681849 C86.3666604,26.6810151 86.0996038,26.8093925 86.0128302,27.0530717 L84.6228679,30.9693736 L83.2630189,27.0594113 C83.1778302,26.8149396 82.9103774,26.6873547 82.6663019,26.7709585 C82.4222264,26.8561472 82.2930566,27.1232038 82.3774528,27.3676755 L84.1220377,32.3815245 L83.4131887,34.3785057 C83.3264151,34.6221849 83.454,34.890034 83.6976792,34.9768075 C83.7495849,34.9954302 83.8026792,35.0037509 83.8545849,35.0037509 C84.0471509,35.0037509 84.2278302,34.8836943 84.2959811,34.6919208 L86.8960189,27.3664868 C86.9823962,27.1228075 86.8548113,26.8549585 86.6111321,26.7681849" id="Fill-51" fill="#848484"></path>
                <path d="M79.2120396,31.8386547 C78.222266,31.8386547 77.6310962,31.0889943 77.6310962,29.8341453 C77.6310962,28.3910887 78.1632283,27.6588623 79.2120396,27.6588623 C80.2461906,27.6588623 80.8159642,28.4235792 80.8159642,29.8115604 C80.8159642,31.0996925 80.231134,31.8386547 79.2120396,31.8386547 M79.2120396,26.7804283 C78.5602472,26.7804283 78.020983,26.9872585 77.6144547,27.3680321 L77.6144547,24.6051453 C77.6144547,24.3464094 77.4044547,24.1368057 77.1457189,24.1368057 C76.886983,24.1368057 76.6773792,24.3464094 76.6773792,24.6051453 L76.6773792,32.2439943 C76.6773792,32.5031264 76.886983,32.7127302 77.1457189,32.7127302 C77.4044547,32.7127302 77.6144547,32.5031264 77.6144547,32.2439943 L77.6144547,32.1231453 C78.0792283,32.5403717 78.6668321,32.7170887 79.2120396,32.7170887 C80.357134,32.7170887 81.6943981,31.9559377 81.6943981,29.8115604 C81.6943981,27.5768434 80.4118132,26.7804283 79.2120396,26.7804283" id="Fill-53" fill="#848484"></path>
            </g>
        </g>
    </g>
</svg>